<svg width="300" height="296" viewBox="0 0 300 296" fill="none" xmlns="http://www.w3.org/2000/svg">
<path fill-rule="evenodd" clip-rule="evenodd" d="M0 32C0 14.3269 14.3269 0 32 0H268C285.673 0 300 14.3269 300 32V51.7209C300 69.3941 285.673 83.7209 268 83.7209H32C14.3269 83.7209 0 69.394 0 51.7209V32ZM23.7209 138.046C23.7209 120.373 38.0478 106.047 55.7209 106.047H242.884C260.557 106.047 274.884 120.373 274.884 138.046V157.767C274.884 175.441 260.557 189.767 242.884 189.767H55.721C38.0478 189.767 23.7209 175.441 23.7209 157.767V138.046ZM32 212.093C14.3269 212.093 0 226.42 0 244.093V263.814C0 281.487 14.3269 295.814 32 295.814H268C285.673 295.814 300 281.487 300 263.814V244.093C300 226.42 285.673 212.093 268 212.093H32Z" fill="#869E9C"/>
</svg>
