<svg width="1012" height="375" viewBox="0 0 1012 375" fill="none" xmlns="http://www.w3.org/2000/svg">
<path opacity="0.4" d="M957.137 137.937C936.795 109.397 913.962 83.4616 889.232 60.8008C843.046 19.3864 798.532 0.669812 744.796 0.0372461C691.283 0.632602 646.844 19.2747 600.769 60.4659C592.811 66.3078 584.853 72.7824 576.82 79.9267C568.862 85.7686 560.904 92.2431 552.871 99.3873C544.913 105.229 536.955 111.704 528.923 118.848C521.336 124.392 513.75 130.532 506.089 137.304C498.466 130.532 490.88 124.392 483.293 118.848C475.261 111.666 467.303 105.192 459.308 99.3501C451.312 92.2058 443.354 85.7314 435.396 79.9267C427.401 72.7452 419.443 66.3078 411.447 60.4659C365.372 19.2747 320.933 0.595356 267.346 0C213.684 0.595356 169.17 19.3491 122.946 60.7636C98.2166 83.3871 75.3835 109.322 55.0419 137.899C36.8944 163.462 13.2432 201.863 3.64879 239.482C-2.15247 260.431 -0.999679 278.366 6.84689 288.673C10.9747 294.106 16.8875 297.12 23.4325 297.12C24.1391 297.12 24.8828 297.12 25.5894 297.12C26.7422 301.362 28.4528 305.083 30.7585 308.134C34.8863 313.567 40.7991 316.581 47.3441 316.581C47.7532 316.581 48.1251 316.581 48.5341 316.581C48.8688 316.581 49.2035 316.581 49.5382 316.581C50.691 320.823 52.4016 324.544 54.7072 327.595C58.8351 333.027 64.7479 336.041 71.2929 336.041C71.7019 336.041 72.0738 336.041 72.4829 336.041C72.8176 336.041 73.1523 336.041 73.487 336.041C74.6398 340.283 76.3504 344.004 78.656 347.055C82.7838 352.488 88.6966 355.502 95.2416 355.502C95.6507 355.502 96.0226 355.502 96.4316 355.502C96.7663 355.502 97.101 355.502 97.4357 355.502C98.5885 359.744 100.299 363.465 102.605 366.516C106.733 371.949 112.645 374.963 119.19 374.963C137.784 375.893 161.287 354.237 181.814 332.916C205.428 308.692 230.976 283.65 261.21 267.092C291.034 250.161 326.288 241.008 363.029 240.636C381.214 240.822 398.989 243.129 415.947 247.482C403.377 268.692 391.403 293.176 385.23 317.362C379.429 338.311 380.619 356.209 388.428 366.516C392.556 371.949 398.469 374.963 405.014 374.963C405.423 374.963 405.795 374.963 406.204 374.963C420.409 374.963 437.367 362.274 453.618 346.907C461.502 341.846 469.571 334.999 477.529 327.483C485.413 322.423 493.557 315.502 501.553 307.948C503.04 307.018 504.528 305.976 506.015 304.934C507.54 306.013 509.027 307.055 510.515 307.985C518.473 315.502 526.58 322.385 534.426 327.446C542.384 334.999 550.529 341.883 558.412 346.944C574.663 362.312 591.583 374.963 605.789 374.963C606.198 374.963 606.57 374.963 606.979 374.963C613.524 374.963 619.437 371.949 623.565 366.516C631.411 356.209 632.564 338.311 626.763 317.362C620.59 293.176 608.615 268.654 596.046 247.482C613.004 243.129 630.742 240.822 648.927 240.636C685.742 240.971 720.959 250.124 750.858 267.092C781.091 283.65 806.639 308.692 830.216 332.916C850.334 353.79 873.316 375 891.687 375C892.096 375 892.468 375 892.877 375C899.422 375 905.335 371.986 909.462 366.553C911.768 363.502 913.516 359.781 914.632 355.539C915.375 355.539 916.082 355.577 916.788 355.539C923.333 355.539 929.246 352.525 933.374 347.093C935.68 344.041 937.39 340.32 938.543 336.079C939.287 336.079 939.994 336.116 940.7 336.079C947.245 336.079 953.158 333.065 957.286 327.632C959.591 324.581 961.339 320.86 962.455 316.618C962.789 316.618 963.124 316.618 963.459 316.618C963.868 316.618 964.24 316.618 964.649 316.618C971.194 316.618 977.107 313.604 981.234 308.171C983.54 305.12 985.288 301.399 986.403 297.157C987.147 297.157 987.854 297.194 988.56 297.157C995.105 297.157 1001.02 294.143 1005.15 288.711C1012.99 278.403 1014.15 260.506 1008.38 239.594C998.787 201.9 975.136 163.5 956.988 137.937H957.137ZM696.898 44.8007C749.073 45.396 792.396 63.666 837.43 104.039C861.862 126.402 884.398 152.039 904.517 180.244C921.214 203.798 942.671 238.329 953.046 272.896C945.2 266.161 937.39 258.385 930.287 251.017C921.995 242.496 913.442 233.901 904.554 225.566C898.009 214.738 891.389 204.803 885.365 196.319C865.023 167.779 842.19 141.844 817.461 119.183C771.274 77.7685 726.76 59.0519 673.024 58.4194C644.799 58.717 619.14 64.0754 594.41 75.0522C626.651 54.7357 659.562 45.21 696.973 44.7634L696.898 44.8007ZM720.847 182.254C757.663 182.626 792.88 191.742 822.778 208.71C842.19 219.352 859.706 233.529 875.994 248.71C887.485 267.836 898.566 289.79 905.149 311.781C897.302 305.046 889.493 297.269 882.39 289.901C858.478 265.38 832.559 240.003 801.693 223.073C770.976 205.621 734.793 196.244 696.936 195.872C665.847 196.17 635.874 202.607 609.136 214.552C612.371 212.505 615.681 210.533 619.028 208.71C648.852 191.779 684.106 182.626 720.847 182.254ZM633.048 195.091C636.283 193.044 639.593 191.072 642.977 189.249C672.801 172.319 708.055 163.165 744.796 162.793C772.761 163.053 799.796 168.411 824.303 178.421C835.645 191.295 846.467 204.877 856.619 219.166C859.222 222.812 861.937 226.756 864.689 230.924C852.491 220.691 839.55 211.314 825.605 203.649C794.888 186.198 758.704 176.784 720.847 176.449C689.759 176.747 659.785 183.184 633.048 195.128V195.091ZM861.379 215.78C853.57 204.803 845.388 194.235 836.872 184.077C840.219 185.714 843.492 187.426 846.727 189.286C866.176 199.928 883.654 214.105 899.942 229.287C911.433 248.413 922.515 270.403 929.097 292.357C921.251 285.622 913.441 277.845 906.339 270.478C898.046 261.957 889.493 253.361 880.568 245.026C874.023 234.198 867.403 224.263 861.379 215.78ZM580.613 88.5221C609.619 72.3731 639.481 64.6707 672.987 64.2986C725.124 64.8939 768.485 83.1638 813.519 123.536C837.951 145.899 860.487 171.537 880.605 199.742C883.208 203.389 885.923 207.333 888.675 211.5C876.477 201.268 863.536 191.891 849.591 184.226C842.599 180.244 835.311 176.709 827.799 173.621C816.828 161.267 805.375 149.621 793.475 138.718C747.288 97.3036 702.774 78.5871 649.038 77.9545C623.676 78.2522 600.323 82.5685 577.898 91.4616C578.791 90.4942 579.721 89.5268 580.613 88.5594V88.5221ZM568.416 101.918C593.778 89.8988 620.032 84.0569 649.038 83.7592C701.212 84.3546 744.536 102.625 789.57 142.997C798.569 151.221 807.308 159.928 815.75 169.007C793.512 161.342 769.526 157.211 744.796 156.988C707.014 157.36 670.793 166.774 640.15 184.188C622.933 193.64 607.277 205.658 592.662 218.719C589.315 221.175 586.005 223.705 582.77 226.273C580.279 222.589 577.861 219.091 575.518 215.78C560.495 194.682 544.095 175.035 526.58 157.062C530.261 151.407 533.868 146.16 537.29 141.323C547.107 127.555 557.52 114.383 568.453 101.918H568.416ZM585.039 240.524C585.745 241.64 586.452 242.794 587.158 243.91C585.41 244.431 583.7 244.952 581.989 245.51C581.506 244.58 580.985 243.612 580.502 242.682C581.989 241.938 583.514 241.194 585.039 240.487V240.524ZM527.584 176.858C525.204 173.509 522.749 170.198 520.295 166.886C520.444 166.663 520.593 166.439 520.704 166.216C529.778 176.933 538.48 188.095 546.773 199.705C554.21 210.161 562.54 222.775 570.461 236.617C569.866 237.138 569.308 237.621 568.713 238.142C567.56 238.998 566.408 239.817 565.255 240.71C554.061 216.412 539.633 193.826 527.584 176.858ZM560.495 244.357C557.854 246.44 555.251 248.561 552.685 250.719C544.393 223.631 529.555 196.654 515.498 174.886C516.018 174.03 516.502 173.137 517.023 172.281C518.956 174.923 520.927 177.565 522.824 180.244C534.91 197.249 549.45 220.021 560.495 244.357ZM570.498 248.003C570.721 247.891 570.907 247.743 571.13 247.631C572.506 246.85 573.919 246.105 575.295 245.361C575.667 246.031 576.039 246.738 576.374 247.408C573.994 248.264 571.651 249.119 569.345 250.05C569.271 249.826 569.159 249.64 569.085 249.417C569.569 248.933 570.015 248.45 570.498 248.003ZM574.924 232.71C567.077 219.091 558.859 206.663 551.495 196.319C546.661 189.547 541.678 182.886 536.583 176.412C548.595 189.844 559.974 204.133 570.684 219.166C573.101 222.552 575.593 226.161 578.122 229.956C577.043 230.85 575.965 231.78 574.886 232.71H574.924ZM547.405 118.029C542.31 124.504 537.327 131.164 532.455 137.937C529.22 142.513 525.799 147.499 522.303 152.82C521.671 152.188 521.076 151.593 520.444 150.96C529.034 139.499 538.034 128.523 547.368 118.029H547.405ZM523.456 137.527C521.039 140.616 518.622 143.704 516.279 146.867C516.093 146.718 515.944 146.532 515.758 146.383C518.287 143.406 520.853 140.43 523.456 137.527ZM514.531 159.072C515.275 159.89 515.981 160.746 516.725 161.565C516.651 161.677 516.576 161.788 516.502 161.9C515.795 161.007 515.126 160.114 514.419 159.221C514.457 159.183 514.494 159.109 514.531 159.072ZM510.887 164.207C511.668 165.211 512.448 166.253 513.229 167.258C512.783 168.002 512.337 168.709 511.928 169.453C511.147 168.3 510.403 167.146 509.622 166.03C510.031 165.398 510.478 164.802 510.887 164.207ZM512.225 180.579C526.022 202.198 540.19 228.58 547.851 254.85C546.81 255.78 545.768 256.673 544.727 257.603C541.343 260.059 537.996 262.627 534.724 265.268C534.873 257.566 533.682 248.859 531.117 239.556C526.468 221.249 518.473 202.793 509.436 185.714C510.366 184.002 511.296 182.291 512.263 180.579H512.225ZM506.089 158.067C506.424 158.514 506.796 158.923 507.131 159.369C506.796 159.853 506.424 160.374 506.089 160.858C505.755 160.337 505.383 159.853 505.048 159.369C505.383 158.923 505.755 158.514 506.089 158.067ZM506.089 171.202C506.945 172.467 507.8 173.732 508.655 175.035C507.8 176.523 506.945 178.049 506.089 179.574C505.234 178.049 504.379 176.523 503.523 175.035C504.379 173.732 505.234 172.43 506.089 171.202ZM436.883 245.361C438.297 246.105 439.71 246.887 441.086 247.668C441.272 247.78 441.495 247.891 441.681 248.003C442.164 248.487 442.61 248.971 443.094 249.417C443.019 249.64 442.908 249.826 442.833 250.05C440.491 249.119 438.148 248.264 435.805 247.408C436.177 246.701 436.549 246.031 436.883 245.324V245.361ZM434.02 229.956C436.586 226.161 439.077 222.552 441.457 219.166C452.167 204.133 463.584 189.844 475.596 176.412C470.464 182.886 465.481 189.547 460.646 196.319C453.32 206.663 445.065 219.091 437.255 232.71C436.177 231.78 435.098 230.887 434.02 229.956ZM441.755 236.58C449.639 222.775 458.006 210.124 465.406 199.705C473.699 188.095 482.401 176.895 491.475 166.216C491.623 166.439 491.735 166.663 491.884 166.886C489.429 170.16 486.975 173.509 484.595 176.858C472.546 193.826 458.118 216.412 446.924 240.673C445.771 239.817 444.618 238.961 443.466 238.105C442.908 237.584 442.313 237.101 441.755 236.58ZM489.355 180.244C491.252 177.565 493.223 174.923 495.156 172.281C495.677 173.137 496.198 173.993 496.681 174.886C482.587 196.654 467.786 223.593 459.493 250.719C456.928 248.561 454.324 246.44 451.684 244.357C462.729 220.021 477.269 197.249 489.355 180.244ZM499.953 180.579C500.92 182.253 501.85 183.965 502.78 185.677C493.743 202.756 485.748 221.212 481.062 239.519C478.496 248.822 477.306 257.529 477.455 265.231C474.183 262.627 470.836 260.059 467.452 257.603C466.41 256.673 465.369 255.78 464.328 254.85C471.988 228.58 486.194 202.198 499.953 180.579ZM501.255 164.17C501.664 164.765 502.11 165.398 502.519 165.993C501.776 167.109 500.995 168.263 500.214 169.416C499.768 168.672 499.321 167.965 498.912 167.221C499.693 166.216 500.474 165.174 501.255 164.17ZM497.722 159.183C497.016 160.076 496.346 160.969 495.64 161.862C495.565 161.751 495.491 161.639 495.417 161.528C496.16 160.709 496.867 159.853 497.611 159.035C497.611 159.072 497.685 159.146 497.722 159.183ZM496.383 146.309C496.383 146.309 496.049 146.644 495.863 146.793C493.52 143.667 491.103 140.578 488.686 137.49C491.289 140.392 493.818 143.332 496.346 146.309H496.383ZM491.661 150.923C491.028 151.518 490.433 152.151 489.801 152.783C486.306 147.462 482.884 142.476 479.649 137.899C474.815 131.09 469.832 124.467 464.7 117.992C474.071 128.485 483.07 139.499 491.661 150.96V150.923ZM443.763 101.88C454.696 114.346 465.109 127.518 474.926 141.286C478.348 146.086 481.955 151.369 485.636 157.025C468.121 174.998 451.721 194.682 436.698 215.78C434.355 219.054 431.938 222.589 429.446 226.273C426.211 223.668 422.901 221.175 419.554 218.719C404.939 205.658 389.283 193.602 372.066 184.188C341.349 166.737 305.165 157.323 267.308 156.988C242.616 157.211 218.63 161.342 196.429 169.007C204.87 159.928 213.609 151.258 222.609 143.034C267.643 102.625 311.004 84.3546 363.066 83.7964C392.072 84.1313 418.364 89.9361 443.726 101.955L443.763 101.88ZM431.677 242.682C431.157 243.612 430.673 244.58 430.19 245.51C428.479 244.952 426.768 244.394 425.021 243.91C425.727 242.757 426.434 241.64 427.14 240.524C428.665 241.231 430.19 241.975 431.677 242.719V242.682ZM150.8 215.78C144.775 224.263 138.119 234.198 131.611 245.026C122.686 253.361 114.133 261.994 105.84 270.515C98.7373 277.882 90.9279 285.659 83.0813 292.394C89.6635 270.441 100.745 248.45 112.236 229.324C128.524 214.142 146.04 199.965 165.489 189.286C168.687 187.463 171.997 185.751 175.306 184.114C166.79 194.272 158.609 204.84 150.8 215.817V215.78ZM187.876 178.421C212.345 168.449 239.38 163.09 267.308 162.793C304.124 163.165 339.341 172.281 369.239 189.249C372.586 191.109 375.896 193.044 379.131 195.091C352.393 183.109 322.383 176.709 291.257 176.412C253.475 176.784 217.254 186.198 186.574 203.612C172.592 211.277 159.65 220.654 147.453 230.887C150.205 226.756 152.919 222.812 155.523 219.166C165.675 204.877 176.496 191.295 187.839 178.421H187.876ZM136.148 248.747C152.436 233.566 169.951 219.389 189.4 208.71C219.225 191.779 254.479 182.626 291.22 182.254C328.036 182.626 363.252 191.742 393.151 208.71C396.498 210.533 399.77 212.505 403.043 214.552C376.305 202.607 346.295 196.17 315.206 195.872C277.423 196.244 241.203 205.658 210.523 223.073C179.583 240.04 153.663 265.417 129.752 289.939C122.649 297.306 114.839 305.083 106.993 311.818C113.575 289.864 124.657 267.873 136.148 248.747ZM434.243 91.4244C411.819 82.5313 388.465 78.2149 363.029 77.9172C309.367 78.5126 264.854 97.2664 218.63 138.681C206.73 149.583 195.313 161.23 184.343 173.546C176.831 176.672 169.58 180.207 162.588 184.151C148.606 191.816 135.664 201.193 123.467 211.463C126.219 207.296 128.934 203.389 131.537 199.705C151.618 171.5 174.191 145.862 198.586 123.536C243.62 83.1266 286.981 64.8567 339.043 64.2613C372.549 64.6334 402.448 72.3359 431.454 88.4849C432.347 89.4524 433.276 90.4197 434.169 91.3871L434.243 91.4244ZM417.769 75.0895C393.039 64.0754 367.343 58.7543 339.08 58.4566C285.419 59.052 240.868 77.8057 194.681 119.22C169.951 141.844 147.118 167.816 126.777 196.356C120.752 204.84 114.096 214.775 107.588 225.603C98.6629 233.938 90.1098 242.533 81.8169 251.054C74.7141 258.422 66.9047 266.199 59.0582 272.934C69.4335 238.403 90.8907 203.835 107.588 180.281C127.669 152.076 150.242 126.439 174.637 104.113C219.671 63.7033 263.032 45.4333 315.131 44.8379C352.579 45.2472 385.49 54.81 417.769 75.1265V75.0895ZM24.3994 291.315C24.1391 291.315 23.8788 291.315 23.6185 291.315H23.4697C18.7097 291.315 14.5447 289.194 11.4953 285.176C8.2972 281.008 1.71502 268.357 9.30128 241.045C18.6725 204.207 41.9519 166.514 59.8019 141.36C79.8832 113.155 102.456 87.5174 126.851 65.1916C171.885 24.7818 215.246 6.51181 267.346 5.91645C304.793 6.32576 337.741 15.8887 369.983 36.2052C345.253 25.1912 319.52 19.87 291.294 19.5351C237.633 20.1305 193.082 38.8843 146.895 80.2987C122.165 102.922 99.3323 128.895 78.9907 157.434C60.8432 182.998 37.1919 221.398 27.5975 259.017C24.2507 271.11 23.2466 282.162 24.4738 291.353L24.3994 291.315ZM48.3482 310.776C48.0879 310.776 47.8276 310.776 47.5672 310.776H47.4929H47.4185C42.6213 310.776 38.4935 308.655 35.4441 304.636C34.2913 303.111 32.655 300.432 31.4278 296.301C37.1547 294.887 43.2163 291.873 49.3894 287.743C47.8275 296.227 47.4929 304.004 48.3854 310.776H48.3482ZM51.286 279.185C43.8857 284.729 36.6713 288.971 30.1635 290.571C29.1594 283.501 29.4941 273.715 33.1757 260.468C42.5469 223.631 65.8263 185.937 83.6763 160.783C103.758 132.578 126.33 106.941 150.725 84.6152C195.76 44.2054 239.12 25.9352 291.22 25.3398C328.668 25.7491 361.616 35.3121 393.857 55.6286C369.128 44.6145 343.431 39.2936 315.169 38.9587C261.507 39.5541 216.956 58.3079 170.77 99.7223C146.04 122.346 123.207 148.318 102.865 176.858C84.7176 202.421 61.0663 240.784 51.4719 278.441C51.3975 278.701 51.3604 278.924 51.286 279.185ZM72.297 330.237C72.0366 330.237 71.7763 330.237 71.516 330.237H71.4416H71.3673C66.6073 330.237 62.4423 328.116 59.3929 324.097C58.2401 322.572 56.6038 319.892 55.3766 315.762C61.1035 314.348 67.1651 311.297 73.3382 307.204C71.7763 315.688 71.4416 323.502 72.3341 330.274L72.297 330.237ZM75.2348 298.646C67.8345 304.19 60.6201 308.432 54.1123 310.032C53.1826 303.446 53.4057 294.515 56.4179 282.608C66.4213 274.868 76.5363 264.934 86.0563 255.073C89.7751 251.24 93.5682 247.408 97.3613 243.612C88.2132 260.803 80.1435 279.445 75.4207 297.901C75.3463 298.162 75.3092 298.385 75.2348 298.646ZM96.2457 349.697C95.9854 349.697 95.7251 349.697 95.4648 349.697H95.3904H95.316C90.556 349.697 86.391 347.576 83.3416 343.558C82.1888 342.032 80.5526 339.353 79.3254 335.223C85.0523 333.809 91.1138 330.758 97.2869 326.665C95.7251 335.148 95.3904 342.962 96.2829 349.735L96.2457 349.697ZM99.1835 318.106C91.7832 323.651 84.5688 327.893 78.061 329.493C77.1313 322.906 77.3545 313.976 80.3666 302.069C90.3701 294.329 100.485 284.394 110.005 274.534C113.724 270.701 117.517 266.868 121.347 263.073C112.199 280.301 104.092 298.906 99.4067 317.362C99.3323 317.623 99.2951 317.846 99.2207 318.106H99.1835ZM102.01 348.99C101.08 342.404 101.303 333.474 104.315 321.567C114.319 313.827 124.434 303.892 133.954 294.032C157.531 269.808 183.116 244.803 213.386 228.207C243.211 211.24 278.465 202.124 315.206 201.751C352.021 202.086 387.238 211.24 417.137 228.207C419.852 229.696 422.492 231.259 425.095 232.859C425.021 232.933 424.983 233.045 424.909 233.119C398.692 221.733 369.425 215.631 339.117 215.333C301.335 215.705 265.114 225.119 234.435 242.533C203.495 259.501 177.575 284.878 153.663 309.399C137.487 326.181 117.666 345.046 101.973 348.953L102.01 348.99ZM363.066 234.831C325.284 235.203 289.063 244.617 258.383 262.031C227.48 278.999 201.561 304.339 177.612 328.897C159.093 348.135 135.739 370.051 119.414 369.195H119.265C114.505 369.195 110.34 367.074 107.29 363.056C106.138 361.53 104.501 358.851 103.274 354.721C120.343 350.516 140.239 331.911 157.94 313.529C181.517 289.306 207.102 264.301 237.335 247.668C267.16 230.738 302.413 221.584 339.155 221.212C368.31 221.51 396.461 227.314 421.748 238.142C420.893 239.519 420 240.896 419.145 242.31C401.221 237.547 382.367 235.017 363.103 234.831H363.066ZM405.311 369.158H405.237H405.163C400.402 369.158 396.237 367.037 393.188 363.018C389.99 358.851 383.408 346.2 390.957 318.925V318.85C397.13 294.701 409.216 270.18 421.86 249.082C423.756 249.64 425.616 250.198 427.475 250.794C419.889 265.938 413.307 281.976 409.253 297.939C403.452 318.888 404.642 336.786 412.451 347.093C416.579 352.525 422.492 355.539 429.037 355.539C429.446 355.539 429.818 355.539 430.227 355.539C432.012 355.539 433.797 355.353 435.656 354.981C424.76 363.614 414.05 369.605 405.348 369.158H405.311ZM449.973 342.404C442.499 347.167 435.359 350.032 429.223 349.697H429.148H429.074C424.314 349.697 420.149 347.576 417.1 343.558C413.902 339.39 407.319 326.702 414.868 299.464V299.39C418.885 283.613 425.467 267.687 433.053 252.654C435.619 253.547 438.111 254.478 440.639 255.482C437.702 263.11 435.136 270.775 433.202 278.478C427.401 299.427 428.591 317.325 436.4 327.632C440.528 333.065 446.441 336.079 452.986 336.079C453.395 336.079 453.767 336.079 454.176 336.079C454.994 336.079 455.775 336.041 456.593 335.93C454.436 338.088 452.242 340.246 450.011 342.367L449.973 342.404ZM464.439 327.93C460.423 329.567 456.63 330.423 453.172 330.237H453.097H453.023C448.263 330.237 444.098 328.116 441.048 324.097C437.85 319.93 431.268 307.278 438.817 280.003V279.929C440.714 272.524 443.168 265.082 446.032 257.715C449.23 259.092 452.391 260.543 455.514 262.106C455.737 262.329 455.961 262.552 456.184 262.775C451.535 282.087 452.986 298.497 460.386 308.171C464.253 313.269 469.683 316.246 475.744 316.581C471.951 320.376 468.232 324.134 464.514 327.93H464.439ZM481.88 310.441C480.244 310.739 478.645 310.85 477.12 310.776H476.972C472.174 310.776 468.047 308.655 464.997 304.636C462.097 300.841 456.407 290.013 461.055 267.575C468.084 274.31 475.261 280.599 482.289 285.659C482.884 286.738 483.554 287.78 484.26 288.748C487.161 292.58 490.917 295.185 495.193 296.413C495.491 296.673 495.826 296.971 496.123 297.232C491.289 301.585 486.566 306.013 481.918 310.515L481.88 310.441ZM506.015 288.562C501.218 284.58 496.309 280.748 491.289 277.064C488.723 274.794 486.157 272.524 483.517 270.329C482.661 263.334 483.108 253.808 486.64 241.082V241.008C490.88 224.412 497.908 207.668 506.015 191.965C514.122 207.668 521.15 224.449 525.39 241.008V241.082C528.923 253.808 529.369 263.371 528.513 270.329C525.873 272.562 523.27 274.794 520.704 277.101C515.684 280.748 510.775 284.58 506.015 288.562ZM535.096 310.776H534.947C533.422 310.85 531.823 310.776 530.187 310.441C525.538 305.939 520.816 301.474 515.981 297.157C516.279 296.897 516.613 296.636 516.911 296.376C521.188 295.148 524.943 292.543 527.844 288.711C528.588 287.743 529.22 286.701 529.815 285.622C536.843 280.599 544.021 274.273 551.049 267.538C555.735 289.976 550.008 300.804 547.107 304.599C544.058 308.618 539.893 310.739 535.133 310.739L535.096 310.776ZM536.397 316.581C542.459 316.209 547.888 313.269 551.756 308.171C559.119 298.497 560.606 282.087 555.921 262.775C556.144 262.552 556.367 262.329 556.59 262.106C559.714 260.58 562.838 259.092 566.036 257.715C568.899 265.082 571.354 272.524 573.25 279.929V280.003C580.799 307.241 574.217 319.892 571.056 324.097C568.007 328.116 563.842 330.237 559.082 330.237H558.896C555.437 330.423 551.644 329.567 547.628 327.93C543.946 324.134 540.19 320.339 536.397 316.581ZM555.512 335.967C556.33 336.041 557.148 336.116 557.966 336.116C558.375 336.116 558.747 336.116 559.156 336.116C565.701 336.116 571.614 333.102 575.742 327.669C583.588 317.362 584.741 299.464 578.94 278.515C576.969 270.85 574.44 263.148 571.465 255.52C573.957 254.515 576.485 253.585 579.051 252.692C586.638 267.724 593.22 283.65 597.236 299.427V299.501C604.785 326.739 598.203 339.39 595.042 343.595C591.993 347.614 587.828 349.735 583.068 349.735H582.882C582.547 349.735 582.25 349.735 581.915 349.735C576.002 349.735 569.271 346.907 562.168 342.404C559.937 340.283 557.706 338.125 555.549 335.967H555.512ZM621.185 318.85V318.925C628.734 346.162 622.152 358.814 618.991 363.018C615.941 367.037 611.776 369.158 607.016 369.158H606.83C598.166 369.642 587.456 363.614 576.523 354.981C578.791 355.428 580.985 355.651 583.105 355.539C589.65 355.539 595.563 352.525 599.69 347.093C607.537 336.786 608.69 318.888 602.889 297.939C598.835 282.013 592.253 265.975 584.667 250.794C586.526 250.198 588.385 249.64 590.282 249.082C602.926 270.217 615.049 294.738 621.185 318.85ZM904.851 362.981C901.802 367 897.637 369.121 892.877 369.121H892.691C892.356 369.121 892.059 369.121 891.724 369.121C875.436 369.121 852.64 347.651 834.455 328.823C810.544 304.302 784.624 278.924 753.758 261.994C723.041 244.543 686.858 235.129 649.001 234.794C629.738 234.98 610.921 237.51 592.997 242.273C592.141 240.859 591.286 239.482 590.393 238.105C615.681 227.277 643.832 221.472 672.95 221.175C709.766 221.547 744.982 230.663 774.881 247.631C805.114 264.227 830.662 289.232 854.239 313.455C871.94 331.837 891.836 350.441 908.905 354.646C907.677 358.776 906.078 361.456 904.888 362.981H904.851ZM910.095 348.953C894.476 345.009 874.581 326.181 858.404 309.399C834.492 284.878 808.61 259.501 777.707 242.57C746.99 225.119 710.807 215.742 672.95 215.37C642.679 215.668 613.413 221.77 587.233 233.119C587.158 233.045 587.121 232.933 587.047 232.859C589.687 231.259 592.327 229.659 595.042 228.17C624.866 211.24 660.12 202.086 696.861 201.714C733.677 202.086 768.894 211.203 798.792 228.17C829.026 244.729 854.574 269.771 878.151 293.994C887.671 303.855 897.786 313.79 907.789 321.53C910.801 333.437 911.024 342.367 910.095 348.953ZM928.8 343.52C925.751 347.539 921.586 349.66 916.826 349.66H916.64C916.379 349.66 916.119 349.66 915.859 349.66C916.788 342.888 916.454 335.074 914.855 326.627C921.028 330.72 927.089 333.772 932.816 335.186C931.589 339.316 929.99 341.995 928.8 343.52ZM934.006 329.493C927.498 327.855 920.284 323.651 912.884 318.069C912.809 317.846 912.772 317.623 912.698 317.399C907.975 298.906 899.905 280.264 890.757 263.073C894.587 266.906 898.343 270.738 902.062 274.534C911.582 284.394 921.697 294.329 931.701 302.069C934.713 313.976 934.936 322.944 934.006 329.493ZM952.711 324.06C949.662 328.078 945.497 330.2 940.737 330.2H940.551C940.291 330.2 940.031 330.2 939.77 330.2C940.7 323.427 940.365 315.613 938.766 307.129C944.939 311.26 951.001 314.274 956.728 315.688C955.501 319.818 953.901 322.497 952.711 324.023V324.06ZM957.955 310.032C951.447 308.394 944.233 304.19 936.833 298.608C936.758 298.385 936.721 298.162 936.647 297.939C931.924 279.445 923.854 260.803 914.706 243.612C918.536 247.445 922.292 251.278 926.011 255.073C935.531 264.934 945.646 274.868 955.649 282.608C958.662 294.515 958.885 303.483 957.955 310.069V310.032ZM976.698 304.599C973.611 308.618 969.446 310.776 964.686 310.739H964.537C964.277 310.739 964.016 310.739 963.756 310.739C964.686 303.966 964.351 296.152 962.752 287.669C968.925 291.799 974.987 294.813 980.714 296.227C979.487 300.357 977.888 303.036 976.698 304.562V304.599ZM981.904 290.571C975.396 288.934 968.182 284.729 960.781 279.148C960.707 278.924 960.67 278.701 960.595 278.478C951.001 240.784 927.35 202.384 909.202 176.821C888.861 148.281 866.027 122.346 841.298 99.6851C795.111 58.2706 750.597 39.5541 696.861 38.9215C668.636 39.2192 642.977 44.5775 618.247 55.5544C650.489 35.2378 683.4 25.7121 720.81 25.3028C772.947 25.8982 816.308 44.1681 861.342 84.5407C885.737 106.904 908.31 132.541 928.428 160.746C946.278 185.9 969.557 223.631 978.966 260.506C982.647 273.715 982.945 283.501 981.978 290.571H981.904ZM1000.61 285.138C997.56 289.157 993.395 291.278 988.635 291.278H988.449C988.188 291.278 987.928 291.278 987.668 291.278C988.895 282.087 987.891 271.036 984.544 258.98C974.95 221.287 951.298 182.886 933.151 157.323C912.809 128.783 889.976 102.848 865.247 80.1872C819.06 38.7727 774.546 20.0562 720.81 19.4236C692.585 19.7213 666.925 25.0794 642.196 36.0563C674.437 15.7397 707.348 6.21402 744.759 5.80471C796.896 6.40007 840.256 24.6702 885.291 65.0428C909.686 87.4059 932.258 113.043 952.377 141.248C970.227 166.402 993.506 204.133 1002.91 241.008C1010.46 268.245 1003.88 280.897 1000.68 285.101L1000.61 285.138Z" fill="url(#paint0_angular_101_635)"/>
<defs>
<radialGradient id="paint0_angular_101_635" cx="0" cy="0" r="1" gradientUnits="userSpaceOnUse" gradientTransform="translate(506 187.5) rotate(90) scale(187.5 506)">
<stop stop-color="#007BFF"/>
<stop offset="0.325" stop-color="#F6803A"/>
<stop offset="0.575" stop-color="#7666B1"/>
<stop offset="0.825" stop-color="#6B8E95"/>
<stop offset="1" stop-color="#007BFF"/>
</radialGradient>
</defs>
</svg>
