<svg width="360" height="360" viewBox="0 0 360 360" fill="none" xmlns="http://www.w3.org/2000/svg">
<g clip-path="url(#clip0_66_6771)">
<path d="M118.158 295.948C118.158 299.199 115.52 301.837 112.269 301.837H76.9323C73.6752 301.837 71.043 299.199 71.043 295.948V119.253C71.043 116.002 73.6752 113.364 76.9323 113.364H112.269C115.52 113.364 118.158 116.002 118.158 119.253V295.948Z" fill="#A2BCBA"/>
<path d="M71.043 119.253C71.043 116.002 73.6752 113.364 76.9323 113.364H112.269C115.52 113.364 118.158 116.002 118.158 119.253V295.948C118.158 299.199 115.52 301.837 112.269 301.837" fill="#83A5A2"/>
<path d="M123.794 115.816C123.794 117.993 122.045 119.748 119.874 119.748H69.3325C67.1558 119.748 65.4062 117.993 65.4062 115.816C65.4062 113.661 67.1616 111.895 69.3325 111.895H119.874C122.045 111.895 123.794 113.661 123.794 115.816Z" fill="#A2BCBA"/>
<path d="M123.794 299.379C123.794 301.556 122.045 303.311 119.874 303.311H69.3325C67.1558 303.311 65.4062 301.556 65.4062 299.379C65.4062 297.213 67.1616 295.459 69.3325 295.459H119.874C122.045 295.452 123.794 297.213 123.794 299.379Z" fill="#A2BCBA"/>
<path d="M82.6358 284.72C82.6358 285.434 82.0566 286.008 81.3475 286.008C80.6277 286.008 80.0649 285.434 80.0649 284.72V130.48C80.0649 129.766 80.6277 129.192 81.3475 129.192C82.0616 129.192 82.6358 129.766 82.6358 130.48V284.72Z" fill="#B6D3D1"/>
<path d="M95.8885 284.72C95.8885 285.434 95.3094 286.008 94.6003 286.008C93.8862 286.008 93.312 285.434 93.312 284.72V130.48C93.312 129.766 93.8912 129.192 94.6003 129.192C95.3087 129.192 95.8885 129.766 95.8885 130.48V284.72Z" fill="#B6D3D1"/>
<path d="M109.141 284.72C109.141 285.434 108.562 286.008 107.853 286.008C107.139 286.008 106.564 285.434 106.564 284.72V130.48C106.564 129.766 107.144 129.192 107.853 129.192C108.567 129.192 109.141 129.766 109.141 130.48V284.72Z" fill="#B6D3D1"/>
<path d="M70.2101 116.834C70.6171 116.834 70.9471 116.504 70.9471 116.097C70.9471 115.69 70.6171 115.36 70.2101 115.36C69.8031 115.36 69.4731 115.69 69.4731 116.097C69.4731 116.504 69.8031 116.834 70.2101 116.834Z" fill="#B6D3D1"/>
<path d="M75.0924 116.834C75.4995 116.834 75.8294 116.504 75.8294 116.097C75.8294 115.69 75.4995 115.36 75.0924 115.36C74.6854 115.36 74.3555 115.69 74.3555 116.097C74.3555 116.504 74.6854 116.834 75.0924 116.834Z" fill="#B6D3D1"/>
<path d="M79.9694 116.834C80.3764 116.834 80.7064 116.504 80.7064 116.097C80.7064 115.69 80.3764 115.36 79.9694 115.36C79.5624 115.36 79.2324 115.69 79.2324 116.097C79.2324 116.504 79.5624 116.834 79.9694 116.834Z" fill="#B6D3D1"/>
<path d="M84.8468 116.834C85.2539 116.834 85.5838 116.504 85.5838 116.097C85.5838 115.69 85.2539 115.36 84.8468 115.36C84.4398 115.36 84.1099 115.69 84.1099 116.097C84.1099 116.504 84.4398 116.834 84.8468 116.834Z" fill="#B6D3D1"/>
<path d="M89.7233 116.834C90.1303 116.834 90.4603 116.504 90.4603 116.097C90.4603 115.69 90.1303 115.36 89.7233 115.36C89.3163 115.36 88.9863 115.69 88.9863 116.097C88.9863 116.504 89.3163 116.834 89.7233 116.834Z" fill="#B6D3D1"/>
<path d="M94.6003 116.834C95.0073 116.834 95.3372 116.504 95.3372 116.097C95.3372 115.69 95.0073 115.36 94.6003 115.36C94.1932 115.36 93.8633 115.69 93.8633 116.097C93.8633 116.504 94.1932 116.834 94.6003 116.834Z" fill="#B6D3D1"/>
<path d="M99.5055 116.834C99.9125 116.834 100.242 116.504 100.242 116.097C100.242 115.69 99.9125 115.36 99.5055 115.36C99.0985 115.36 98.7686 115.69 98.7686 116.097C98.7686 116.504 99.0985 116.834 99.5055 116.834Z" fill="#B6D3D1"/>
<path d="M104.343 116.834C104.75 116.834 105.08 116.504 105.08 116.097C105.08 115.69 104.75 115.36 104.343 115.36C103.936 115.36 103.606 115.69 103.606 116.097C103.606 116.504 103.936 116.834 104.343 116.834Z" fill="#B6D3D1"/>
<path d="M109.231 116.834C109.638 116.834 109.968 116.504 109.968 116.097C109.968 115.69 109.638 115.36 109.231 115.36C108.824 115.36 108.494 115.69 108.494 116.097C108.494 116.504 108.824 116.834 109.231 116.834Z" fill="#B6D3D1"/>
<path d="M114.108 116.834C114.515 116.834 114.845 116.504 114.845 116.097C114.845 115.69 114.515 115.36 114.108 115.36C113.701 115.36 113.371 115.69 113.371 116.097C113.371 116.504 113.701 116.834 114.108 116.834Z" fill="#B6D3D1"/>
<path d="M118.985 116.834C119.392 116.834 119.722 116.504 119.722 116.097C119.722 115.69 119.392 115.36 118.985 115.36C118.578 115.36 118.248 115.69 118.248 116.097C118.248 116.504 118.578 116.834 118.985 116.834Z" fill="#B6D3D1"/>
<path d="M70.2101 299.874C70.6171 299.874 70.9471 299.544 70.9471 299.137C70.9471 298.73 70.6171 298.4 70.2101 298.4C69.8031 298.4 69.4731 298.73 69.4731 299.137C69.4731 299.544 69.8031 299.874 70.2101 299.874Z" fill="#B6D3D1"/>
<path d="M75.0924 299.874C75.4995 299.874 75.8294 299.544 75.8294 299.137C75.8294 298.73 75.4995 298.4 75.0924 298.4C74.6854 298.4 74.3555 298.73 74.3555 299.137C74.3555 299.544 74.6854 299.874 75.0924 299.874Z" fill="#B6D3D1"/>
<path d="M79.9694 299.874C80.3764 299.874 80.7064 299.544 80.7064 299.137C80.7064 298.73 80.3764 298.4 79.9694 298.4C79.5624 298.4 79.2324 298.73 79.2324 299.137C79.2324 299.544 79.5624 299.874 79.9694 299.874Z" fill="#B6D3D1"/>
<path d="M84.8468 299.874C85.2539 299.874 85.5838 299.544 85.5838 299.137C85.5838 298.73 85.2539 298.4 84.8468 298.4C84.4398 298.4 84.1099 298.73 84.1099 299.137C84.1099 299.544 84.4398 299.874 84.8468 299.874Z" fill="#B6D3D1"/>
<path d="M89.7233 299.874C90.1303 299.874 90.4603 299.544 90.4603 299.137C90.4603 298.73 90.1303 298.4 89.7233 298.4C89.3163 298.4 88.9863 298.73 88.9863 299.137C88.9863 299.544 89.3163 299.874 89.7233 299.874Z" fill="#B6D3D1"/>
<path d="M94.6003 299.874C95.0073 299.874 95.3372 299.544 95.3372 299.137C95.3372 298.73 95.0073 298.4 94.6003 298.4C94.1932 298.4 93.8633 298.73 93.8633 299.137C93.8633 299.544 94.1932 299.874 94.6003 299.874Z" fill="#B6D3D1"/>
<path d="M99.5055 299.874C99.9125 299.874 100.242 299.544 100.242 299.137C100.242 298.73 99.9125 298.4 99.5055 298.4C99.0985 298.4 98.7686 298.73 98.7686 299.137C98.7686 299.544 99.0985 299.874 99.5055 299.874Z" fill="#B6D3D1"/>
<path d="M104.343 299.874C104.75 299.874 105.08 299.544 105.08 299.137C105.08 298.73 104.75 298.4 104.343 298.4C103.936 298.4 103.606 298.73 103.606 299.137C103.606 299.544 103.936 299.874 104.343 299.874Z" fill="#B6D3D1"/>
<path d="M109.231 299.874C109.638 299.874 109.968 299.544 109.968 299.137C109.968 298.73 109.638 298.4 109.231 298.4C108.824 298.4 108.494 298.73 108.494 299.137C108.494 299.544 108.824 299.874 109.231 299.874Z" fill="#B6D3D1"/>
<path d="M114.108 299.874C114.515 299.874 114.845 299.544 114.845 299.137C114.845 298.73 114.515 298.4 114.108 298.4C113.701 298.4 113.371 298.73 113.371 299.137C113.371 299.544 113.701 299.874 114.108 299.874Z" fill="#B6D3D1"/>
<path d="M118.985 299.874C119.392 299.874 119.722 299.544 119.722 299.137C119.722 298.73 119.392 298.4 118.985 298.4C118.578 298.4 118.248 298.73 118.248 299.137C118.248 299.544 118.578 299.874 118.985 299.874Z" fill="#B6D3D1"/>
<path d="M203.558 295.948C203.558 299.199 200.92 301.837 197.669 301.837H162.337C159.08 301.837 156.442 299.199 156.442 295.948V119.253C156.442 116.002 159.08 113.364 162.337 113.364H197.669C200.92 113.364 203.558 116.002 203.558 119.253V295.948Z" fill="#A2BCBA"/>
<path d="M156.442 119.253C156.442 116.002 159.08 113.364 162.337 113.364H197.669C200.92 113.364 203.558 116.002 203.558 119.253V295.948C203.558 299.199 200.92 301.837 197.669 301.837" fill="#83A5A2"/>
<path d="M209.2 115.816C209.2 117.993 207.445 119.748 205.274 119.748H154.727C152.556 119.748 150.801 117.993 150.801 115.816C150.801 113.661 152.556 111.895 154.727 111.895H205.274C207.445 111.895 209.2 113.661 209.2 115.816Z" fill="#A2BCBA"/>
<path d="M209.2 299.379C209.2 301.556 207.445 303.311 205.274 303.311H154.727C152.556 303.311 150.801 301.556 150.801 299.379C150.801 297.213 152.556 295.459 154.727 295.459H205.274C207.445 295.452 209.2 297.213 209.2 299.379Z" fill="#A2BCBA"/>
<path d="M168.185 284.359C168.185 285.073 167.606 285.648 166.897 285.648C166.182 285.648 165.603 285.074 165.603 284.359V130.12C165.603 129.406 166.187 128.832 166.897 128.832C167.605 128.832 168.185 129.405 168.185 130.12V284.359Z" fill="#B6D3D1"/>
<path d="M181.437 284.359C181.437 285.073 180.864 285.648 180.149 285.648C179.435 285.648 178.861 285.074 178.861 284.359V130.12C178.861 129.406 179.44 128.832 180.149 128.832C180.863 128.832 181.437 129.405 181.437 130.12V284.359Z" fill="#B6D3D1"/>
<path d="M194.69 284.359C194.69 285.073 194.111 285.648 193.402 285.648C192.688 285.648 192.114 285.074 192.114 284.359V130.12C192.114 129.406 192.687 128.832 193.402 128.832C194.116 128.832 194.69 129.405 194.69 130.12V284.359Z" fill="#B6D3D1"/>
<path d="M155.737 116.474C156.144 116.474 156.474 116.144 156.474 115.737C156.474 115.33 156.144 115 155.737 115C155.33 115 155 115.33 155 115.737C155 116.144 155.33 116.474 155.737 116.474Z" fill="#B6D3D1"/>
<path d="M160.631 116.474C161.038 116.474 161.368 116.144 161.368 115.737C161.368 115.33 161.038 115 160.631 115C160.224 115 159.894 115.33 159.894 115.737C159.894 116.144 160.224 116.474 160.631 116.474Z" fill="#B6D3D1"/>
<path d="M165.513 116.474C165.92 116.474 166.25 116.144 166.25 115.737C166.25 115.33 165.92 115 165.513 115C165.106 115 164.776 115.33 164.776 115.737C164.776 116.144 165.106 116.474 165.513 116.474Z" fill="#B6D3D1"/>
<path d="M170.396 116.474C170.803 116.474 171.133 116.144 171.133 115.737C171.133 115.33 170.803 115 170.396 115C169.989 115 169.659 115.33 169.659 115.737C169.659 116.144 169.989 116.474 170.396 116.474Z" fill="#B6D3D1"/>
<path d="M175.273 116.474C175.68 116.474 176.01 116.144 176.01 115.737C176.01 115.33 175.68 115 175.273 115C174.866 115 174.536 115.33 174.536 115.737C174.536 116.144 174.866 116.474 175.273 116.474Z" fill="#B6D3D1"/>
<path d="M180.15 116.474C180.557 116.474 180.887 116.144 180.887 115.737C180.887 115.33 180.557 115 180.15 115C179.743 115 179.413 115.33 179.413 115.737C179.413 116.144 179.743 116.474 180.15 116.474Z" fill="#B6D3D1"/>
<path d="M185.027 116.474C185.434 116.474 185.764 116.144 185.764 115.737C185.764 115.33 185.434 115 185.027 115C184.62 115 184.29 115.33 184.29 115.737C184.29 116.144 184.62 116.474 185.027 116.474Z" fill="#B6D3D1"/>
<path d="M189.881 116.474C190.288 116.474 190.618 116.144 190.618 115.737C190.618 115.33 190.288 115 189.881 115C189.474 115 189.144 115.33 189.144 115.737C189.144 116.144 189.474 116.474 189.881 116.474Z" fill="#B6D3D1"/>
<path d="M194.775 116.474C195.182 116.474 195.512 116.144 195.512 115.737C195.512 115.33 195.182 115 194.775 115C194.368 115 194.038 115.33 194.038 115.737C194.038 116.144 194.368 116.474 194.775 116.474Z" fill="#B6D3D1"/>
<path d="M199.663 116.474C200.07 116.474 200.4 116.144 200.4 115.737C200.4 115.33 200.07 115 199.663 115C199.256 115 198.926 115.33 198.926 115.737C198.926 116.144 199.256 116.474 199.663 116.474Z" fill="#B6D3D1"/>
<path d="M204.534 116.474C204.941 116.474 205.271 116.144 205.271 115.737C205.271 115.33 204.941 115 204.534 115C204.127 115 203.797 115.33 203.797 115.737C203.797 116.144 204.127 116.474 204.534 116.474Z" fill="#B6D3D1"/>
<path d="M155.737 299.514C156.144 299.514 156.474 299.184 156.474 298.777C156.474 298.37 156.144 298.04 155.737 298.04C155.33 298.04 155 298.37 155 298.777C155 299.184 155.33 299.514 155.737 299.514Z" fill="#B6D3D1"/>
<path d="M160.631 299.514C161.038 299.514 161.368 299.184 161.368 298.777C161.368 298.37 161.038 298.04 160.631 298.04C160.224 298.04 159.894 298.37 159.894 298.777C159.894 299.184 160.224 299.514 160.631 299.514Z" fill="#B6D3D1"/>
<path d="M165.513 299.514C165.92 299.514 166.25 299.184 166.25 298.777C166.25 298.37 165.92 298.04 165.513 298.04C165.106 298.04 164.776 298.37 164.776 298.777C164.776 299.184 165.106 299.514 165.513 299.514Z" fill="#B6D3D1"/>
<path d="M170.396 299.514C170.803 299.514 171.133 299.184 171.133 298.777C171.133 298.37 170.803 298.04 170.396 298.04C169.989 298.04 169.659 298.37 169.659 298.777C169.659 299.184 169.989 299.514 170.396 299.514Z" fill="#B6D3D1"/>
<path d="M175.273 299.514C175.68 299.514 176.01 299.184 176.01 298.777C176.01 298.37 175.68 298.04 175.273 298.04C174.866 298.04 174.536 298.37 174.536 298.777C174.536 299.184 174.866 299.514 175.273 299.514Z" fill="#B6D3D1"/>
<path d="M180.15 299.514C180.557 299.514 180.887 299.184 180.887 298.777C180.887 298.37 180.557 298.04 180.15 298.04C179.743 298.04 179.413 298.37 179.413 298.777C179.413 299.184 179.743 299.514 180.15 299.514Z" fill="#B6D3D1"/>
<path d="M185.027 299.514C185.434 299.514 185.764 299.184 185.764 298.777C185.764 298.37 185.434 298.04 185.027 298.04C184.62 298.04 184.29 298.37 184.29 298.777C184.29 299.184 184.62 299.514 185.027 299.514Z" fill="#B6D3D1"/>
<path d="M189.881 299.514C190.288 299.514 190.618 299.184 190.618 298.777C190.618 298.37 190.288 298.04 189.881 298.04C189.474 298.04 189.144 298.37 189.144 298.777C189.144 299.184 189.474 299.514 189.881 299.514Z" fill="#B6D3D1"/>
<path d="M194.775 299.514C195.182 299.514 195.512 299.184 195.512 298.777C195.512 298.37 195.182 298.04 194.775 298.04C194.368 298.04 194.038 298.37 194.038 298.777C194.038 299.184 194.368 299.514 194.775 299.514Z" fill="#B6D3D1"/>
<path d="M199.663 299.514C200.07 299.514 200.4 299.184 200.4 298.777C200.4 298.37 200.07 298.04 199.663 298.04C199.256 298.04 198.926 298.37 198.926 298.777C198.926 299.184 199.256 299.514 199.663 299.514Z" fill="#B6D3D1"/>
<path d="M204.534 299.514C204.941 299.514 205.271 299.184 205.271 298.777C205.271 298.37 204.941 298.04 204.534 298.04C204.127 298.04 203.797 298.37 203.797 298.777C203.797 299.184 204.127 299.514 204.534 299.514Z" fill="#B6D3D1"/>
<path d="M288.952 295.948C288.952 299.199 286.325 301.837 283.068 301.837H247.732C244.475 301.837 241.842 299.199 241.842 295.948V119.253C241.842 116.002 244.475 113.364 247.732 113.364H283.068C286.326 113.364 288.952 116.002 288.952 119.253V295.948Z" fill="#A2BCBA"/>
<path d="M241.842 119.253C241.842 116.002 244.474 113.364 247.731 113.364H283.068C286.325 113.364 288.952 116.002 288.952 119.253V295.948C288.952 299.199 286.324 301.837 283.068 301.837" fill="#83A5A2"/>
<path d="M294.6 115.816C294.6 117.993 292.844 119.748 290.673 119.748H240.132C237.956 119.748 236.2 117.993 236.2 115.816C236.2 113.661 237.956 111.895 240.132 111.895H290.673C292.845 111.895 294.6 113.661 294.6 115.816Z" fill="#A2BCBA"/>
<path d="M294.6 299.379C294.6 301.556 292.844 303.311 290.673 303.311H240.132C237.956 303.311 236.2 301.556 236.2 299.379C236.2 297.213 237.956 295.459 240.132 295.459H290.673C292.845 295.452 294.6 297.213 294.6 299.379Z" fill="#A2BCBA"/>
<path d="M253.435 284.72C253.435 285.434 252.862 286.008 252.147 286.008C251.433 286.008 250.853 285.434 250.853 284.72V130.48C250.853 129.766 251.438 129.192 252.147 129.192C252.861 129.192 253.435 129.766 253.435 130.48V284.72Z" fill="#B6D3D1"/>
<path d="M266.694 284.72C266.694 285.434 266.109 286.008 265.4 286.008C264.685 286.008 264.111 285.434 264.111 284.72V130.48C264.111 129.766 264.685 129.192 265.4 129.192C266.114 129.192 266.694 129.766 266.694 130.48V284.72Z" fill="#B6D3D1"/>
<path d="M279.941 284.72C279.941 285.434 279.367 286.008 278.653 286.008C277.949 286.008 277.364 285.434 277.364 284.72V130.48C277.364 129.766 277.949 129.192 278.653 129.192C279.372 129.192 279.941 129.766 279.941 130.48V284.72Z" fill="#B6D3D1"/>
<path d="M241.032 116.84C241.442 116.84 241.774 116.508 241.774 116.097C241.774 115.687 241.442 115.355 241.032 115.355C240.622 115.355 240.289 115.687 240.289 116.097C240.289 116.508 240.622 116.84 241.032 116.84Z" fill="#B6D3D1"/>
<path d="M245.869 116.84C246.279 116.84 246.612 116.508 246.612 116.097C246.612 115.687 246.279 115.355 245.869 115.355C245.459 115.355 245.126 115.687 245.126 116.097C245.126 116.508 245.459 116.84 245.869 116.84Z" fill="#B6D3D1"/>
<path d="M250.763 116.834C251.17 116.834 251.5 116.504 251.5 116.097C251.5 115.69 251.17 115.36 250.763 115.36C250.356 115.36 250.026 115.69 250.026 116.097C250.026 116.504 250.356 116.834 250.763 116.834Z" fill="#B6D3D1"/>
<path d="M255.645 116.829C256.049 116.829 256.377 116.501 256.377 116.097C256.377 115.693 256.049 115.366 255.645 115.366C255.241 115.366 254.914 115.693 254.914 116.097C254.914 116.501 255.241 116.829 255.645 116.829Z" fill="#B6D3D1"/>
<path d="M260.517 116.834C260.924 116.834 261.254 116.504 261.254 116.097C261.254 115.69 260.924 115.36 260.517 115.36C260.11 115.36 259.78 115.69 259.78 116.097C259.78 116.504 260.11 116.834 260.517 116.834Z" fill="#B6D3D1"/>
<path d="M265.4 116.834C265.807 116.834 266.137 116.504 266.137 116.097C266.137 115.69 265.807 115.36 265.4 115.36C264.993 115.36 264.663 115.69 264.663 116.097C264.663 116.504 264.993 116.834 265.4 116.834Z" fill="#B6D3D1"/>
<path d="M270.277 116.834C270.684 116.834 271.013 116.504 271.013 116.097C271.013 115.69 270.684 115.36 270.277 115.36C269.87 115.36 269.54 115.69 269.54 116.097C269.54 116.504 269.87 116.834 270.277 116.834Z" fill="#B6D3D1"/>
<path d="M275.176 116.834C275.583 116.834 275.913 116.504 275.913 116.097C275.913 115.69 275.583 115.36 275.176 115.36C274.769 115.36 274.439 115.69 274.439 116.097C274.439 116.504 274.769 116.834 275.176 116.834Z" fill="#B6D3D1"/>
<path d="M280.013 116.834C280.42 116.834 280.75 116.504 280.75 116.097C280.75 115.69 280.42 115.36 280.013 115.36C279.606 115.36 279.276 115.69 279.276 116.097C279.276 116.504 279.606 116.834 280.013 116.834Z" fill="#B6D3D1"/>
<path d="M284.907 116.834C285.314 116.834 285.644 116.504 285.644 116.097C285.644 115.69 285.314 115.36 284.907 115.36C284.5 115.36 284.17 115.69 284.17 116.097C284.17 116.504 284.5 116.834 284.907 116.834Z" fill="#B6D3D1"/>
<path d="M289.801 116.834C290.208 116.834 290.538 116.504 290.538 116.097C290.538 115.69 290.208 115.36 289.801 115.36C289.394 115.36 289.064 115.69 289.064 116.097C289.064 116.504 289.394 116.834 289.801 116.834Z" fill="#B6D3D1"/>
<path d="M241.032 299.88C241.442 299.88 241.774 299.547 241.774 299.137C241.774 298.727 241.442 298.394 241.032 298.394C240.622 298.394 240.289 298.727 240.289 299.137C240.289 299.547 240.622 299.88 241.032 299.88Z" fill="#B6D3D1"/>
<path d="M245.869 299.88C246.279 299.88 246.612 299.547 246.612 299.137C246.612 298.727 246.279 298.394 245.869 298.394C245.459 298.394 245.126 298.727 245.126 299.137C245.126 299.547 245.459 299.88 245.869 299.88Z" fill="#B6D3D1"/>
<path d="M250.763 299.874C251.17 299.874 251.5 299.544 251.5 299.137C251.5 298.73 251.17 298.4 250.763 298.4C250.356 298.4 250.026 298.73 250.026 299.137C250.026 299.544 250.356 299.874 250.763 299.874Z" fill="#B6D3D1"/>
<path d="M255.645 299.868C256.049 299.868 256.377 299.541 256.377 299.137C256.377 298.733 256.049 298.406 255.645 298.406C255.241 298.406 254.914 298.733 254.914 299.137C254.914 299.541 255.241 299.868 255.645 299.868Z" fill="#B6D3D1"/>
<path d="M260.517 299.874C260.924 299.874 261.254 299.544 261.254 299.137C261.254 298.73 260.924 298.4 260.517 298.4C260.11 298.4 259.78 298.73 259.78 299.137C259.78 299.544 260.11 299.874 260.517 299.874Z" fill="#B6D3D1"/>
<path d="M265.4 299.874C265.807 299.874 266.137 299.544 266.137 299.137C266.137 298.73 265.807 298.4 265.4 298.4C264.993 298.4 264.663 298.73 264.663 299.137C264.663 299.544 264.993 299.874 265.4 299.874Z" fill="#B6D3D1"/>
<path d="M270.277 299.874C270.684 299.874 271.013 299.544 271.013 299.137C271.013 298.73 270.684 298.4 270.277 298.4C269.87 298.4 269.54 298.73 269.54 299.137C269.54 299.544 269.87 299.874 270.277 299.874Z" fill="#B6D3D1"/>
<path d="M275.176 299.874C275.583 299.874 275.913 299.544 275.913 299.137C275.913 298.73 275.583 298.4 275.176 298.4C274.769 298.4 274.439 298.73 274.439 299.137C274.439 299.544 274.769 299.874 275.176 299.874Z" fill="#B6D3D1"/>
<path d="M280.013 299.874C280.42 299.874 280.75 299.544 280.75 299.137C280.75 298.73 280.42 298.4 280.013 298.4C279.606 298.4 279.276 298.73 279.276 299.137C279.276 299.544 279.606 299.874 280.013 299.874Z" fill="#B6D3D1"/>
<path d="M284.907 299.874C285.314 299.874 285.644 299.544 285.644 299.137C285.644 298.73 285.314 298.4 284.907 298.4C284.5 298.4 284.17 298.73 284.17 299.137C284.17 299.544 284.5 299.874 284.907 299.874Z" fill="#B6D3D1"/>
<path d="M289.801 299.874C290.208 299.874 290.538 299.544 290.538 299.137C290.538 298.73 290.208 298.4 289.801 298.4C289.394 298.4 289.064 298.73 289.064 299.137C289.064 299.544 289.394 299.874 289.801 299.874Z" fill="#B6D3D1"/>
<path d="M308.837 338.793C308.837 339.53 308.246 340.121 307.521 340.121H52.4906C51.7537 340.121 51.1631 339.53 51.1631 338.793V315.68C51.1631 314.943 51.7537 314.353 52.4906 314.353H307.52C308.246 314.353 308.836 314.943 308.836 315.68L308.837 338.793Z" fill="#A2BCBA"/>
<path d="M51.1641 315.68C51.1641 314.943 51.7546 314.353 52.4916 314.353H307.521C308.247 314.353 308.837 314.943 308.837 315.68V338.793C308.837 339.53 308.247 340.121 307.521 340.121" fill="#90AFAC"/>
<path d="M329.447 358.672C329.447 359.409 328.856 360 328.131 360H31.8803C31.1433 360 30.5527 359.409 30.5527 358.672V335.559C30.5527 334.822 31.1433 334.232 31.8803 334.232H328.13C328.856 334.232 329.446 334.822 329.446 335.559V358.672H329.447Z" fill="#B6D3D1"/>
<path d="M30.5527 335.554C30.5527 334.817 31.1433 334.226 31.8803 334.226H328.13C328.856 334.226 329.446 334.817 329.446 335.554V358.667C329.446 359.404 328.856 359.994 328.13 359.994" fill="#A7C9C6"/>
<path d="M319.091 91.6223L320.891 89.8227L180.011 5.88507L39.1089 89.8227L40.9313 91.6223H319.091Z" fill="#A2BCBA"/>
<path d="M319.091 91.6223L320.891 89.8227L180.011 5.88507L122.484 89.8227L124.301 91.6223H319.091Z" fill="#869E9C"/>
<path d="M319.091 97.5116H40.9314C39.3732 97.5116 37.8771 96.8982 36.7688 95.7963L34.9578 93.996C33.6695 92.7078 33.0396 90.9082 33.2646 89.0965C33.4838 87.2962 34.53 85.693 36.0939 84.7596L177.002 0.822666C178.858 -0.274222 181.182 -0.274222 183.032 0.822666L323.901 84.7596C325.47 85.6937 326.511 87.2854 326.736 89.0907C326.961 90.896 326.342 92.6963 325.06 93.9789L323.265 95.7792C322.151 96.8875 320.655 97.5116 319.091 97.5116ZM57.4747 85.7329H302.531L180.011 12.742L57.4747 85.7329Z" fill="#C1DBD8"/>
</g>
<defs>
<clipPath id="clip0_66_6771">
<rect width="360" height="360" fill="white"/>
</clipPath>
</defs>
</svg>
