<svg width="360" height="360" viewBox="0 0 360 360" fill="none" xmlns="http://www.w3.org/2000/svg">
<path d="M230.063 146.988C230.063 158.66 220.605 168.152 208.898 168.152C203.098 168.152 197.754 165.762 193.957 161.965C189.457 166.57 184.43 170.613 178.945 173.918C184.535 176.238 189.879 179.016 194.941 182.18C173.426 200.672 159.82 228.059 159.82 258.645C159.82 263.953 160.242 269.191 161.016 274.254H56.1094C56.3203 227.566 71.7539 188.719 113.063 173.391C108.07 170.051 106.383 175.254 102.234 170.895C98.3672 175.395 103.852 168.187 97.418 168.187C85.7461 168.187 76.2539 158.73 76.2539 147.023C76.2539 136.406 84.1289 127.582 94.3594 126.105C94.043 124.77 90.1758 123.398 89.8945 121.992C83.5312 118.336 82.7227 111.48 82.7227 103.605C82.7227 95.4492 87.3633 88.3125 94.1836 84.832C102.832 50.5547 140.168 32.2734 175.746 32.2734C190.512 49.5703 206.402 51.0469 214.699 85.8516C221.52 89.332 226.23 96.4687 226.23 104.695C226.23 112.887 221.625 119.918 214.875 123.469C214.594 124.453 214.383 125.508 214.102 126.527C223.277 128.848 230.063 137.074 230.063 146.988Z" fill="#B6D3D1"/>
<path d="M184.887 184.289C187.805 186.328 191.848 185.59 193.852 182.637C195.891 179.719 195.152 175.676 192.199 173.672L192.023 173.531C191.285 173.004 190.582 172.547 189.457 171.949C190.195 171.352 190.898 170.754 191.602 170.121C195.82 172.723 200.672 174.094 205.734 174.094C220.641 174.094 232.77 161.965 232.77 147.059C232.77 138.023 228.305 129.832 221.238 124.875C226.16 119.883 229.043 113.133 229.043 105.891C229.043 96.7148 224.473 88.3477 216.949 83.3555C212.379 66.5156 202.641 51.3281 189.387 40.3594C182.355 34.5586 174.551 30.0586 166.113 26.9297C157.395 23.6953 148.254 22.0781 138.902 22.0781C102.867 22.0781 71.2969 46.6875 61.1367 82.3008C53.6484 87.293 49.0781 95.6602 49.0781 104.801C49.0781 111.832 51.8555 118.547 56.6016 123.504C53.9297 125.016 51.5391 126.949 49.5 129.305C45.2109 134.227 42.8555 140.52 42.8555 147.059C42.8555 161.965 54.9844 174.094 69.8906 174.094C75.4453 174.094 80.7891 172.371 85.2891 169.277C85.6055 169.559 85.9219 169.875 86.2734 170.156C69.4336 178.383 54.9844 190.688 43.9805 206.156C30.4805 225.141 23.3086 247.535 23.2031 270.879L23.168 277.383H153.879C157.43 277.383 160.348 274.5 160.348 270.914C160.348 267.363 157.465 264.445 153.879 264.445H36.3516C39.0586 225.738 64.4766 191.426 101.145 177.785L113.063 173.355L102.48 166.324C98.0508 163.371 93.9375 159.891 90.2461 155.988L85.3242 150.75L80.6484 156.199C77.9414 159.328 74.0391 161.121 69.9258 161.121C62.1211 161.121 55.793 154.793 55.793 146.988C55.793 140.027 60.9961 134.016 67.8516 132.996L74.9883 131.941L73.1602 124.945C72.8438 123.715 72.5625 122.484 72.2813 121.254L71.6836 118.406L69.1523 116.965C64.7227 114.469 61.9805 109.758 61.9805 104.695C61.9805 99.3867 64.8984 94.5703 69.6445 92.1445L72.2461 90.8086L72.9492 87.9961C80.7891 56.7422 107.895 34.9102 138.867 34.9102C170.297 34.9102 197.508 57.1289 205.031 88.9453L205.734 91.8633L208.371 93.2344C213.117 95.6602 216.07 100.477 216.07 105.82C216.07 111.094 213.152 115.91 208.477 118.336L205.84 119.707L205.172 122.625C204.961 123.609 204.715 124.488 204.504 125.367L202.816 131.695L209.18 133.313C215.437 134.895 219.832 140.52 219.832 147.023C219.832 154.828 213.504 161.156 205.699 161.156C201.937 161.156 198.387 159.68 195.715 157.008L191.109 152.402L186.539 157.078C182.531 161.191 178.031 164.742 173.18 167.695L162.422 174.34L174.129 179.191C182.707 182.777 183.727 183.445 184.676 184.113L184.887 184.289Z" fill="#869E9C"/>
<path d="M151.594 177.469C151.031 176.203 149.554 175.641 148.289 176.203L138.515 180.035C137.777 180.352 137.285 180.984 137.109 181.723C136.933 180.984 136.441 180.352 135.703 180.035L125.929 176.203C124.664 175.641 123.187 176.203 122.625 177.469L102.445 223.066C101.883 224.332 102.445 225.809 103.711 226.371L113.484 230.203C114.75 230.766 116.226 230.203 116.789 228.937L136.969 183.34C137.039 183.199 137.074 183.059 137.109 182.918C137.144 183.059 137.179 183.199 137.25 183.34L157.429 228.937C157.992 230.203 159.469 230.766 160.734 230.203L170.508 226.371C171.773 225.809 172.336 224.332 171.773 223.066L151.594 177.469ZM259.418 179.543C215.719 179.543 180.316 214.945 180.316 258.645C180.316 302.344 215.719 337.746 259.418 337.746C303.117 337.746 338.519 302.344 338.519 258.645C338.519 214.945 303.082 179.543 259.418 179.543ZM308.672 228.023L265.676 309.691C264.515 311.906 262.265 313.242 259.804 313.242H259.594C257.062 313.312 254.742 311.941 253.547 309.691L210.551 228.023C208.828 224.789 210.094 220.746 213.328 218.988C214.875 218.145 216.703 218.004 218.426 218.531C220.148 219.059 221.554 220.219 222.363 221.766L259.594 292.535L296.824 221.801C297.668 220.219 299.074 219.059 300.762 218.531C302.484 218.004 304.277 218.18 305.859 219.023C309.094 220.746 310.359 224.789 308.672 228.023Z" fill="#869E9C"/>
</svg>
